<svg fill="#000000" xmlns="http://www.w3.org/2000/svg" viewBox="0 0 32 32" width="32px" height="32px"><path d="M25,4H10C8.355,4,7,5.355,7,7v14H4v4c0,1.645,1.355,3,3,3h14c0.012,0,0.02,0,0.031,0C22.66,27.984,24,26.633,24,25V11h4V7	C28,5.355,26.645,4,25,4z M7,26c-0.566,0-1-0.434-1-1v-2h8h3.969H18v2h0l0,0.031c0.004,0.344,0.074,0.66,0.187,0.969H7z M22,7v18	c0,0.566-0.434,1-1,1c-0.563,0.008-0.992-0.438-1-1l-0.031-4H9V7c0-0.566,0.434-1,1-1h12.187C22.074,6.316,22,6.648,22,7z M26,9h-2	V7c0-0.566,0.434-1,1-1s1,0.434,1,1V9z"/></svg>